%TF.GenerationSoftware,KiCad,Pcbnew,(6.0.10)*%
%TF.CreationDate,2023-02-17T12:18:30-08:00*%
%TF.ProjectId,exercise2,65786572-6369-4736-9532-2e6b69636164,rev?*%
%TF.SameCoordinates,Original*%
%TF.FileFunction,Legend,Top*%
%TF.FilePolarity,Positive*%
%FSLAX46Y46*%
G04 Gerber Fmt 4.6, Leading zero omitted, Abs format (unit mm)*
G04 Created by KiCad (PCBNEW (6.0.10)) date 2023-02-17 12:18:30*
%MOMM*%
%LPD*%
G01*
G04 APERTURE LIST*
%ADD10C,0.150000*%
%ADD11C,0.120000*%
G04 APERTURE END LIST*
D10*
%TO.C,D1*%
X152519880Y-87098095D02*
X151519880Y-87098095D01*
X151519880Y-86860000D01*
X151567500Y-86717142D01*
X151662738Y-86621904D01*
X151757976Y-86574285D01*
X151948452Y-86526666D01*
X152091309Y-86526666D01*
X152281785Y-86574285D01*
X152377023Y-86621904D01*
X152472261Y-86717142D01*
X152519880Y-86860000D01*
X152519880Y-87098095D01*
X152519880Y-85574285D02*
X152519880Y-86145714D01*
X152519880Y-85860000D02*
X151519880Y-85860000D01*
X151662738Y-85955238D01*
X151757976Y-86050476D01*
X151805595Y-86145714D01*
%TO.C,R1*%
X126852380Y-86526666D02*
X126376190Y-86860000D01*
X126852380Y-87098095D02*
X125852380Y-87098095D01*
X125852380Y-86717142D01*
X125900000Y-86621904D01*
X125947619Y-86574285D01*
X126042857Y-86526666D01*
X126185714Y-86526666D01*
X126280952Y-86574285D01*
X126328571Y-86621904D01*
X126376190Y-86717142D01*
X126376190Y-87098095D01*
X126852380Y-85574285D02*
X126852380Y-86145714D01*
X126852380Y-85860000D02*
X125852380Y-85860000D01*
X125995238Y-85955238D01*
X126090476Y-86050476D01*
X126138095Y-86145714D01*
%TO.C,R3*%
X155017380Y-96686666D02*
X154541190Y-97020000D01*
X155017380Y-97258095D02*
X154017380Y-97258095D01*
X154017380Y-96877142D01*
X154065000Y-96781904D01*
X154112619Y-96734285D01*
X154207857Y-96686666D01*
X154350714Y-96686666D01*
X154445952Y-96734285D01*
X154493571Y-96781904D01*
X154541190Y-96877142D01*
X154541190Y-97258095D01*
X154017380Y-96353333D02*
X154017380Y-95734285D01*
X154398333Y-96067619D01*
X154398333Y-95924761D01*
X154445952Y-95829523D01*
X154493571Y-95781904D01*
X154588809Y-95734285D01*
X154826904Y-95734285D01*
X154922142Y-95781904D01*
X154969761Y-95829523D01*
X155017380Y-95924761D01*
X155017380Y-96210476D01*
X154969761Y-96305714D01*
X154922142Y-96353333D01*
%TO.C,D2*%
X150061904Y-112932380D02*
X150061904Y-111932380D01*
X150300000Y-111932380D01*
X150442857Y-111980000D01*
X150538095Y-112075238D01*
X150585714Y-112170476D01*
X150633333Y-112360952D01*
X150633333Y-112503809D01*
X150585714Y-112694285D01*
X150538095Y-112789523D01*
X150442857Y-112884761D01*
X150300000Y-112932380D01*
X150061904Y-112932380D01*
X151014285Y-112027619D02*
X151061904Y-111980000D01*
X151157142Y-111932380D01*
X151395238Y-111932380D01*
X151490476Y-111980000D01*
X151538095Y-112027619D01*
X151585714Y-112122857D01*
X151585714Y-112218095D01*
X151538095Y-112360952D01*
X150966666Y-112932380D01*
X151585714Y-112932380D01*
%TO.C,U1*%
X141478095Y-106992380D02*
X141478095Y-107801904D01*
X141525714Y-107897142D01*
X141573333Y-107944761D01*
X141668571Y-107992380D01*
X141859047Y-107992380D01*
X141954285Y-107944761D01*
X142001904Y-107897142D01*
X142049523Y-107801904D01*
X142049523Y-106992380D01*
X143049523Y-107992380D02*
X142478095Y-107992380D01*
X142763809Y-107992380D02*
X142763809Y-106992380D01*
X142668571Y-107135238D01*
X142573333Y-107230476D01*
X142478095Y-107278095D01*
%TO.C,R2*%
X126562380Y-106846666D02*
X126086190Y-107180000D01*
X126562380Y-107418095D02*
X125562380Y-107418095D01*
X125562380Y-107037142D01*
X125610000Y-106941904D01*
X125657619Y-106894285D01*
X125752857Y-106846666D01*
X125895714Y-106846666D01*
X125990952Y-106894285D01*
X126038571Y-106941904D01*
X126086190Y-107037142D01*
X126086190Y-107418095D01*
X125657619Y-106465714D02*
X125610000Y-106418095D01*
X125562380Y-106322857D01*
X125562380Y-106084761D01*
X125610000Y-105989523D01*
X125657619Y-105941904D01*
X125752857Y-105894285D01*
X125848095Y-105894285D01*
X125990952Y-105941904D01*
X126562380Y-106513333D01*
X126562380Y-105894285D01*
%TO.C,J1*%
X139366666Y-80732380D02*
X139366666Y-81446666D01*
X139319047Y-81589523D01*
X139223809Y-81684761D01*
X139080952Y-81732380D01*
X138985714Y-81732380D01*
X140366666Y-81732380D02*
X139795238Y-81732380D01*
X140080952Y-81732380D02*
X140080952Y-80732380D01*
X139985714Y-80875238D01*
X139890476Y-80970476D01*
X139795238Y-81018095D01*
%TO.C,C1*%
X124293333Y-115447142D02*
X124245714Y-115494761D01*
X124102857Y-115542380D01*
X124007619Y-115542380D01*
X123864761Y-115494761D01*
X123769523Y-115399523D01*
X123721904Y-115304285D01*
X123674285Y-115113809D01*
X123674285Y-114970952D01*
X123721904Y-114780476D01*
X123769523Y-114685238D01*
X123864761Y-114590000D01*
X124007619Y-114542380D01*
X124102857Y-114542380D01*
X124245714Y-114590000D01*
X124293333Y-114637619D01*
X125245714Y-115542380D02*
X124674285Y-115542380D01*
X124960000Y-115542380D02*
X124960000Y-114542380D01*
X124864761Y-114685238D01*
X124769523Y-114780476D01*
X124674285Y-114828095D01*
%TO.C,R4*%
X155102380Y-106156666D02*
X154626190Y-106490000D01*
X155102380Y-106728095D02*
X154102380Y-106728095D01*
X154102380Y-106347142D01*
X154150000Y-106251904D01*
X154197619Y-106204285D01*
X154292857Y-106156666D01*
X154435714Y-106156666D01*
X154530952Y-106204285D01*
X154578571Y-106251904D01*
X154626190Y-106347142D01*
X154626190Y-106728095D01*
X154435714Y-105299523D02*
X155102380Y-105299523D01*
X154054761Y-105537619D02*
X154769047Y-105775714D01*
X154769047Y-105156666D01*
%TO.C,C2*%
X131913333Y-110437142D02*
X131865714Y-110484761D01*
X131722857Y-110532380D01*
X131627619Y-110532380D01*
X131484761Y-110484761D01*
X131389523Y-110389523D01*
X131341904Y-110294285D01*
X131294285Y-110103809D01*
X131294285Y-109960952D01*
X131341904Y-109770476D01*
X131389523Y-109675238D01*
X131484761Y-109580000D01*
X131627619Y-109532380D01*
X131722857Y-109532380D01*
X131865714Y-109580000D01*
X131913333Y-109627619D01*
X132294285Y-109627619D02*
X132341904Y-109580000D01*
X132437142Y-109532380D01*
X132675238Y-109532380D01*
X132770476Y-109580000D01*
X132818095Y-109627619D01*
X132865714Y-109722857D01*
X132865714Y-109818095D01*
X132818095Y-109960952D01*
X132246666Y-110532380D01*
X132865714Y-110532380D01*
D11*
%TO.C,D1*%
X155022500Y-88820000D02*
X155022500Y-84760000D01*
X152752500Y-84760000D02*
X152752500Y-88820000D01*
X152752500Y-88820000D02*
X155022500Y-88820000D01*
%TO.C,R1*%
X124015000Y-86132936D02*
X124015000Y-86587064D01*
X125485000Y-86132936D02*
X125485000Y-86587064D01*
%TO.C,R3*%
X152180000Y-96292936D02*
X152180000Y-96747064D01*
X153650000Y-96292936D02*
X153650000Y-96747064D01*
%TO.C,D2*%
X148340000Y-113165000D02*
X148340000Y-115435000D01*
X152400000Y-113165000D02*
X148340000Y-113165000D01*
X148340000Y-115435000D02*
X152400000Y-115435000D01*
%TO.C,U1*%
X142240000Y-106700000D02*
X145690000Y-106700000D01*
X142240000Y-106700000D02*
X140290000Y-106700000D01*
X142240000Y-101580000D02*
X144190000Y-101580000D01*
X142240000Y-101580000D02*
X140290000Y-101580000D01*
%TO.C,R2*%
X125195000Y-106452936D02*
X125195000Y-106907064D01*
X123725000Y-106452936D02*
X123725000Y-106907064D01*
%TO.C,J1*%
X134620000Y-82550000D02*
X134620000Y-90170000D01*
X144780000Y-88900000D02*
X134620000Y-88900000D01*
X144780000Y-82550000D02*
X134620000Y-82550000D01*
X144780000Y-90170000D02*
X144780000Y-82550000D01*
X134620000Y-90170000D02*
X144780000Y-90170000D01*
%TO.C,C1*%
X121975000Y-115905000D02*
X121975000Y-117775000D01*
X121975000Y-117775000D02*
X126060000Y-117775000D01*
X126060000Y-115905000D02*
X121975000Y-115905000D01*
%TO.C,R4*%
X153735000Y-105762936D02*
X153735000Y-106217064D01*
X152265000Y-105762936D02*
X152265000Y-106217064D01*
%TO.C,C2*%
X131818748Y-111025000D02*
X132341252Y-111025000D01*
X131818748Y-112495000D02*
X132341252Y-112495000D01*
%TD*%
M02*
